<?xml version="1.0" encoding="utf-8"?>
<!-- Generator: Adobe Illustrator 23.0.1, SVG Export Plug-In . SVG Version: 6.00 Build 0)  -->
<svg version="1.1" id="Layer_1" xmlns="http://www.w3.org/2000/svg" xmlns:xlink="http://www.w3.org/1999/xlink" x="0px" y="0px"
	 viewBox="0 0 512 512" style="enable-background:new 0 0 512 512;" xml:space="preserve">
<style type="text/css">
	.st0{fill:#E6E6E6;}
	.st1{fill:#E2007A;}
	.st2{fill:#FFFFFF;}
</style>
<path class="st0" d="M455.6,10.8H56.4c-12.4,0-22.5,10.1-22.5,22.5v74.9h444.3V33.4C478.1,20.9,468.1,10.8,455.6,10.8z M148.2,55.9
	c-6,0-10.8-4.8-10.8-10.8s4.8-10.8,10.8-10.8s10.8,4.8,10.8,10.8S154.1,55.9,148.2,55.9z M366.7,55.9c-6,0-10.8-4.8-10.8-10.8
	s4.8-10.8,10.8-10.8s10.8,4.8,10.8,10.8S372.6,55.9,366.7,55.9z"/>
<path class="st1" d="M511.5,113.5l-34.1,177.7L491.3,476c1,13.6-9.7,25.1-23.3,25.1H44c-13.6,0-24.3-11.6-23.3-25.1l13.9-184.8
	L0.5,113.5c-3.2-16.7,9.6-32.2,26.6-32.2h457.7C501.9,81.3,514.7,96.8,511.5,113.5z"/>
<path class="st1" d="M468,501.2H44c-13.6,0-24.3-11.6-23.3-25.1l13.9-184.8H279h198.4L491.3,476C492.4,489.6,481.6,501.2,468,501.2z
	"/>
<g>
	<path class="st2" d="M247.4,244.9c0-34.7-29-62.9-64.7-62.9S118,210.2,118,244.9h21.6c0-22.8,19.4-41.3,43.1-41.3
		s43.1,18.5,43.1,41.3s-19.4,41.3-43.1,41.3h-20.1v21.6h20.1c23.8,0,43.1,18.5,43.1,41.3s-19.4,41.3-43.1,41.3s-43.1-18.5-43.1-41.3
		H118c0,34.7,29,62.9,64.7,62.9s64.7-28.2,64.7-62.9c0-21.7-11.3-40.8-28.5-52.1C236.1,285.7,247.4,266.5,247.4,244.9z"/>
	<polygon class="st2" points="289.3,218.7 300.4,237.2 343,211.7 343,401.2 364.6,401.2 364.6,173.7 	"/>
</g>
</svg>
