<?xml version="1.0" encoding="utf-8"?>
<!-- Generator: Adobe Illustrator 23.0.1, SVG Export Plug-In . SVG Version: 6.00 Build 0)  -->
<svg version="1.1" id="Capa_1" xmlns="http://www.w3.org/2000/svg" xmlns:xlink="http://www.w3.org/1999/xlink" x="0px" y="0px"
	 viewBox="0 0 420.8 420.8" style="enable-background:new 0 0 420.8 420.8;" xml:space="preserve">
<style type="text/css">
	.st0{fill:#7AE200;}
	.st1{fill:#F7F1E6;}
</style>
<g>
	<g id="Guides_For_Artboard_18_">
	</g>
	<g id="Artwork_17_">
	</g>
	<g id="Layer_2_17_">
		<g>
			<path class="st0" d="M156.5,107.5c1.3-3.5,4.8-5.7,8.6-5.2c3.7,0.5,6.6,3.5,6.9,7.3L184.8,259l23.9-86.3c1-3.5,4.2-6,7.9-5.9
				s6.8,2.6,7.6,6.2l13.3,57.8l22.8-95.6c0.9-3.7,4.3-6.3,8.2-6.1c3.8,0.2,7,3.1,7.5,6.9l17,121l7.6-24.6c1-3.4,4.1-5.6,7.6-5.6
				h85.6c12.6-18.9,21.5-37.7,24.5-55.9c6.5-40.1,0.2-73.2-19-98.3c-19.3-25.3-48.7-39.8-89.8-44.2c-4-0.4-7.6-0.6-11.1-0.6
				c-29.1,0-58.5,10.8-81,29.1c-22.5-18.3-51.9-29.1-80.9-29.1c-3.6,0-7.2,0.2-11.2,0.6c-41.1,4.4-70.5,18.9-89.8,44.2
				c-19.1,25.1-25.5,58.2-19,98.3c3,18.4,12.2,37.5,25.1,56.7h71.8L156.5,107.5z"/>
			<path class="st0" d="M297.7,296c-1.1,3.6-4.6,5.9-8.3,5.6c-3.7-0.3-6.8-3.2-7.3-6.9L266,180.1l-20.9,87.6
				c-0.9,3.6-4.1,6.1-7.8,6.1l0,0c-3.7,0-6.9-2.6-7.8-6.2l-13.9-60.4L188.2,306c-1,3.5-4.1,5.9-7.7,5.9c-0.2,0-0.5,0-0.7,0
				c-3.9-0.4-6.9-3.4-7.2-7.3l-13.5-157.2l-32.6,90.9c-1.1,3.2-4.2,5.3-7.5,5.3H53.1c26.6,34.7,63.1,69,95,99
				c0,0,27.2,27.3,35.4,34.3c6.2,5.3,19.5,15.9,33.9,15.9s27.8-10.6,33.9-15.9c8.2-7,35.4-34.3,35.4-34.3
				c32.2-30.3,69-64.9,95.7-99.9h-68.3L297.7,296z"/>
			<path class="st1" d="M411.2,226.8h-17.4h-85.6c-3.5,0-6.6,2.3-7.6,5.6L293,257l-17-121.1c-0.5-3.8-3.7-6.7-7.5-6.9
				s-7.3,2.4-8.2,6.1l-22.8,95.6L224.2,173c-0.8-3.6-4-6.1-7.6-6.2c-3.7-0.1-6.9,2.3-7.9,5.9L184.8,259L172,109.6
				c-0.3-3.7-3.2-6.8-6.9-7.3s-7.3,1.7-8.6,5.2l-43.1,120.1H41.6H8c-4.4,0-8,3.6-8,8s3.6,8,8,8h45.1H119c3.4,0,6.4-2.1,7.5-5.3
				l32.6-90.9l13.5,157.2c0.3,3.9,3.4,6.9,7.2,7.3c0.3,0,0.5,0,0.7,0c3.6,0,6.7-2.4,7.7-5.9l27.4-98.8l13.9,60.4
				c0.8,3.6,4.1,6.2,7.8,6.2l0,0c3.7,0,6.9-2.5,7.8-6.1l20.9-87.6l16.1,114.6c0.5,3.7,3.5,6.6,7.3,6.9c3.7,0.3,7.2-2,8.3-5.6
				l16.5-53.2h68.3h28.8c4.4,0,8-3.6,8-8S415.6,226.8,411.2,226.8z"/>
		</g>
	</g>
</g>
</svg>
