<?xml version="1.0" encoding="utf-8"?>
<!-- Generator: Adobe Illustrator 23.0.1, SVG Export Plug-In . SVG Version: 6.00 Build 0)  -->
<svg version="1.1" id="Capa_1" xmlns="http://www.w3.org/2000/svg" xmlns:xlink="http://www.w3.org/1999/xlink" x="0px" y="0px"
	 viewBox="0 0 188.1 188.1" style="enable-background:new 0 0 188.1 188.1;" xml:space="preserve">
<style type="text/css">
	.st0{fill:#F2B3EF;}
	.st1{clip-path:url(#SVGID_3_);fill:#ECC19C;}
	.st2{clip-path:url(#SVGID_5_);fill:#ECC19C;}
	.st3{clip-path:url(#SVGID_7_);fill:#EB6D4A;}
	.st4{clip-path:url(#SVGID_9_);fill:#543E36;}
	.st5{clip-path:url(#SVGID_11_);}
	.st6{fill:#543E36;}
	.st7{clip-path:url(#SVGID_13_);fill:#ECC19C;}
	.st8{clip-path:url(#SVGID_15_);fill:#543E36;}
	.st9{clip-path:url(#SVGID_17_);}
	.st10{fill:#C34628;}
</style>
<g>
	<g>
		<g>
			<circle id="SVGID_1_" class="st0" cx="94.1" cy="94.1" r="94.1"/>
		</g>
		<g>
			<defs>
				<circle id="SVGID_2_" cx="94.1" cy="94.1" r="94.1"/>
			</defs>
			<clipPath id="SVGID_3_">
				<use xlink:href="#SVGID_2_"  style="overflow:visible;"/>
			</clipPath>
			<path class="st1" d="M136,52.8v31.3c0,0.5,0,0.9,0,1.4c0,0.4,0,0.7,0,1.1c0,0.3,0,0.7-0.1,1c0,0.2,0,0.5-0.1,0.7
				c0,0.1,0,0.3,0,0.4c0,0.3,0,0.5-0.1,0.8c0,0.5-0.1,1-0.2,1.5c0,0.1,0,0.2-0.1,0.4c0,0.2-0.1,0.5-0.1,0.7v0
				c-0.1,0.4-0.1,0.7-0.2,1.1c-0.1,0.5-0.2,1-0.3,1.5c0,0,0,0,0,0.1c0,0.1,0,0.1,0,0.2c0,0,0,0,0,0.1c-0.1,0.3-0.1,0.5-0.2,0.8
				c0,0.1,0,0.2-0.1,0.3c0,0.2-0.1,0.4-0.1,0.6c0,0.1-0.1,0.2-0.1,0.3c0,0.1-0.1,0.2-0.1,0.3c-0.2,0.8-0.5,1.7-0.7,2.5
				c-0.1,0.4-0.2,0.8-0.4,1.2c0,0,0,0.1,0,0.1c-0.1,0.3-0.2,0.7-0.4,1c0,0.1-0.1,0.2-0.1,0.3c-0.1,0.3-0.2,0.7-0.4,1
				c-0.2,0.4-0.3,0.8-0.5,1.2c-0.1,0.3-0.3,0.7-0.5,1c0,0.1-0.1,0.1-0.1,0.2c-0.2,0.4-0.3,0.7-0.5,1.1c-0.2,0.4-0.4,0.8-0.6,1.1
				c-0.4,0.8-0.8,1.5-1.2,2.2l-0.6,1c-1.6,2.7-3.3,5.3-5.3,7.6c-0.3,0.3-0.5,0.7-0.8,1c-0.4,0.5-0.8,0.9-1.2,1.4
				c-0.3,0.4-0.7,0.8-1.1,1.2c-1,1.1-2,2.1-3,3c-0.2,0.2-0.4,0.4-0.6,0.6c-0.3,0.3-0.7,0.6-1.1,0.9c-0.3,0.2-0.6,0.5-0.9,0.7
				c-0.7,0.6-1.5,1.2-2.2,1.7c-0.3,0.2-0.6,0.5-0.9,0.7c-0.5,0.4-1,0.7-1.6,1.1c-0.3,0.2-0.6,0.4-0.9,0.6c-1,0.6-2.1,1.2-3.2,1.8
				c-0.3,0.1-0.5,0.3-0.8,0.4s-0.5,0.2-0.8,0.4c-0.3,0.2-0.7,0.3-1,0.4c-0.1,0.1-0.3,0.1-0.4,0.2c-0.4,0.2-0.8,0.3-1.2,0.5
				c-0.5,0.2-1,0.3-1.5,0.5c-0.3,0.1-0.7,0.2-1.1,0.3c0,0,0,0-0.1,0c-0.3,0.1-0.7,0.2-1,0.2c-0.1,0-0.2,0-0.3,0.1
				c-0.3,0.1-0.6,0.1-0.9,0.1c-0.4,0.1-0.8,0.1-1.2,0.1c-0.1,0-0.3,0-0.4,0c-0.3,0-0.7,0-1,0h0c-0.3,0-0.6,0-1,0c-0.1,0-0.2,0-0.4,0
				c-0.3,0-0.6,0-0.9-0.1c-0.1,0-0.1,0-0.2,0c-0.4-0.1-0.8-0.1-1.2-0.2c-0.3-0.1-0.7-0.1-1-0.2c-1.8-0.4-3.6-1-5.4-1.8
				c-1.6-0.7-3.1-1.5-4.7-2.5c-0.8-0.5-1.6-1-2.4-1.5c-0.4-0.3-0.8-0.6-1.2-0.8c-1.2-0.9-2.4-1.9-3.6-2.9c-0.3-0.3-0.7-0.6-1-0.9
				c-0.3-0.3-0.7-0.6-1-0.9c-0.8-0.8-1.6-1.6-2.3-2.4c-0.3-0.3-0.6-0.6-0.9-1c-0.8-0.9-1.6-1.9-2.4-2.9c-0.3-0.4-0.6-0.7-0.9-1.1
				c-1-1.4-2-2.8-3-4.3c-0.2-0.4-0.5-0.8-0.7-1.2c-0.3-0.5-0.6-1-0.8-1.5c-1-1.9-2-3.8-2.8-5.8c-0.1-0.3-0.2-0.6-0.3-0.9
				c-0.2-0.4-0.3-0.8-0.4-1.1c-0.2-0.5-0.4-1.1-0.6-1.6c-0.2-0.5-0.4-1.1-0.5-1.7c-0.2-0.5-0.3-1.1-0.5-1.6
				c-0.2-0.6-0.3-1.2-0.5-1.8c0-0.1,0-0.1,0-0.2c-0.2-0.8-0.4-1.7-0.5-2.5c-0.2-1.1-0.4-2.2-0.5-3.4c-0.1-0.4-0.1-0.7-0.1-1.1
				c0-0.4-0.1-0.8-0.1-1.1c-0.1-0.7-0.1-1.4-0.1-2.1c0-0.5,0-0.9,0-1.4V52.8c0-23.1,18.7-41.8,41.8-41.9h0c3.2,0,6.3,0.4,9.3,1
				c2.7,0.6,5.3,1.5,7.8,2.6c3.4,1.5,6.5,3.5,9.4,5.8c2.4,2,4.6,4.2,6.4,6.6c5.5,7,8.8,15.8,8.9,25.4C136,52.5,136,52.7,136,52.8z"
				/>
		</g>
		<g>
			<defs>
				<circle id="SVGID_4_" cx="94.1" cy="94.1" r="94.1"/>
			</defs>
			<clipPath id="SVGID_5_">
				<use xlink:href="#SVGID_4_"  style="overflow:visible;"/>
			</clipPath>
			<path class="st2" d="M148.6,200.7L148.6,200.7l-109.1,0v0c0-6.2,1-12.1,2.9-17.6c0.3-1,0.7-2,1.1-3v0c0.4-1,0.8-1.9,1.3-2.9
				c1.8-3.8,4-7.3,6.6-10.6c0.7-0.8,1.3-1.6,2-2.4c0.3-0.4,0.7-0.8,1.1-1.2c0.4-0.4,0.7-0.7,1.1-1.1c1.8-1.8,3.8-3.5,5.9-5.1
				c1-0.8,2.1-1.5,3.2-2.2c1.1-0.7,2.2-1.3,3.3-2c0,0,0,0,0,0c0.4-0.2,0.9-0.5,1.3-0.8c1.3-0.8,2.5-1.6,3.7-2.6
				c5-3.9,8.8-9.3,11-15.3c1.3-3.6,2-7.6,2-11.6l7.9,0l8.2,0c0,4,0.7,7.9,2,11.5c2.2,6.1,6,11.4,11,15.4c0.7,0.6,1.5,1.2,2.3,1.7
				c0.1,0.1,0.2,0.1,0.2,0.2c0.4,0.2,0.7,0.5,1.1,0.7c0.4,0.3,0.9,0.5,1.3,0.8c0.1,0,0.1,0.1,0.2,0.1c0.9,0.5,1.8,1,2.7,1.6
				c0.4,0.3,0.8,0.5,1.3,0.8c0.9,0.5,1.7,1.1,2.5,1.8c0,0,0,0,0,0h0c1,0.8,2,1.6,3,2.4c1,0.8,1.9,1.7,2.8,2.6
				C142.5,172,148.6,185.7,148.6,200.7z"/>
		</g>
		<g>
			<defs>
				<circle id="SVGID_6_" cx="94.1" cy="94.1" r="94.1"/>
			</defs>
			<clipPath id="SVGID_7_">
				<use xlink:href="#SVGID_6_"  style="overflow:visible;"/>
			</clipPath>
			<path class="st3" d="M148.6,200.7H39.6c0-6.2,1-12.1,2.9-17.6c0.3-1,0.7-2,1.1-3v0c0.4-1,0.8-1.9,1.3-2.9c1.8-3.8,4-7.3,6.6-10.6
				c0.7-0.8,1.3-1.6,2-2.4c0.3-0.4,0.7-0.8,1.1-1.2c0.4-0.4,0.7-0.7,1.1-1.1c1.8-1.8,3.8-3.5,5.9-5.1c1-0.8,2.1-1.5,3.2-2.2
				c0.6-0.4,1.1-0.7,1.7-1c0.5-0.3,1.1-0.6,1.6-0.9c0,0,0,0,0,0v0c0.4-0.2,0.9-0.5,1.3-0.8c1.3-0.8,2.5-1.6,3.7-2.6c0,0,0,0,0,0
				c5.3,5.4,12.7,8.8,21,8.9h0.1c8.2,0,15.7-3.4,21-8.8l0,0c0.7,0.6,1.5,1.2,2.3,1.7c0.1,0.1,0.2,0.1,0.2,0.2
				c0.4,0.2,0.8,0.5,1.1,0.7c0.4,0.3,0.9,0.5,1.3,0.7c0.1,0,0.1,0.1,0.2,0.1c0.5,0.3,1,0.5,1.4,0.8c0.4,0.2,0.8,0.5,1.2,0.8
				c0.4,0.3,0.8,0.5,1.3,0.8c0.9,0.5,1.7,1.1,2.5,1.8h0c1,0.8,2.1,1.6,3,2.4c1,0.8,1.9,1.7,2.8,2.6
				C142.5,172,148.6,185.6,148.6,200.7z"/>
		</g>
		<g>
			<defs>
				<circle id="SVGID_8_" cx="94.1" cy="94.1" r="94.1"/>
			</defs>
			<clipPath id="SVGID_9_">
				<use xlink:href="#SVGID_8_"  style="overflow:visible;"/>
			</clipPath>
			<path class="st4" d="M136,84.1c0,0.5,0,0.9,0,1.4c0,0.4,0,0.7,0,1.1c0,0.3,0,0.7-0.1,1c0,0.2,0,0.5-0.1,0.7c0,0.1,0,0.3,0,0.4
				c0,0.3,0,0.5-0.1,0.8c-0.1,0.5-0.1,1-0.2,1.5c0,0.1,0,0.2-0.1,0.4c0,0.2-0.1,0.5-0.1,0.7c-0.1,0.4-0.1,0.7-0.2,1.1
				c-0.1,0.4-0.2,0.9-0.3,1.3c0,0.1,0,0.2-0.1,0.3c0,0.1,0,0.1,0,0.2c0,0,0,0,0,0.1c0,0.1,0,0.1,0,0.1c-0.1,0.2-0.1,0.4-0.2,0.6
				c0,0.1,0,0.2-0.1,0.3c0,0.2-0.1,0.4-0.2,0.6c0,0.1,0,0.2-0.1,0.3c0,0.1-0.1,0.2-0.1,0.3c-0.2,0.8-0.5,1.7-0.7,2.5
				c-0.1,0.4-0.2,0.8-0.4,1.2c0,0,0,0.1,0,0.1c-0.1,0.3-0.2,0.7-0.4,1c0,0.1-0.1,0.2-0.1,0.3c-0.1,0.3-0.2,0.7-0.4,1
				c-0.2,0.4-0.3,0.8-0.5,1.2c-0.1,0.3-0.3,0.7-0.5,1c0,0.1-0.1,0.1-0.1,0.2c-0.2,0.4-0.3,0.7-0.5,1.1c-0.2,0.4-0.4,0.8-0.6,1.1
				c-0.4,0.8-0.8,1.5-1.2,2.2l-0.6,1c-1.6,2.7-3.3,5.3-5.3,7.6c-0.3,0.3-0.5,0.7-0.8,1c-0.4,0.5-0.8,0.9-1.2,1.4
				c-0.3,0.4-0.7,0.8-1.1,1.2c-1,1.1-2,2.1-3,3c-0.2,0.2-0.4,0.4-0.6,0.6c-0.3,0.3-0.7,0.6-1.1,0.9c-0.3,0.2-0.6,0.5-0.9,0.7
				c-0.7,0.6-1.5,1.2-2.2,1.7c-0.3,0.2-0.6,0.5-0.9,0.7c-0.5,0.4-1,0.7-1.6,1.1c-0.3,0.2-0.6,0.4-0.9,0.6c-1,0.6-2.1,1.2-3.2,1.8
				c-0.3,0.1-0.5,0.3-0.8,0.4s-0.5,0.2-0.8,0.4c-0.3,0.2-0.7,0.3-1,0.4c-0.1,0.1-0.3,0.1-0.4,0.2c-0.4,0.2-0.8,0.3-1.2,0.5
				c-0.5,0.2-1,0.3-1.5,0.5c-0.3,0.1-0.7,0.2-1.1,0.3c0,0,0,0-0.1,0c-0.3,0.1-0.7,0.2-1,0.2c-0.1,0-0.2,0-0.3,0.1
				c-0.3,0.1-0.6,0.1-0.9,0.1c-0.4,0.1-0.8,0.1-1.2,0.1c-0.1,0-0.3,0-0.4,0c-0.3,0-0.7,0-1,0h0c-0.3,0-0.6,0-1,0c-0.1,0-0.2,0-0.4,0
				c-0.3,0-0.6,0-0.9-0.1c-0.1,0-0.1,0-0.2,0c-0.4-0.1-0.8-0.1-1.2-0.2c-0.3-0.1-0.7-0.1-1-0.2c-1.8-0.4-3.6-1-5.4-1.8
				c-1.6-0.7-3.1-1.5-4.7-2.5c-0.8-0.5-1.6-1-2.4-1.5c-0.4-0.3-0.8-0.6-1.2-0.8c-1.2-0.9-2.4-1.9-3.6-2.9c-0.3-0.3-0.7-0.6-1-0.9
				c-0.3-0.3-0.7-0.6-1-0.9c-0.8-0.8-1.6-1.6-2.3-2.4c-0.3-0.3-0.6-0.6-0.9-1c-0.8-0.9-1.6-1.9-2.4-2.9c-0.3-0.4-0.6-0.7-0.9-1.1
				c-1-1.4-2-2.8-3-4.3c-0.2-0.4-0.5-0.8-0.7-1.2c-0.3-0.5-0.6-1-0.8-1.5c-1-1.9-2-3.8-2.8-5.8c-0.1-0.3-0.2-0.6-0.3-0.9
				c-0.2-0.4-0.3-0.8-0.4-1.1c-0.2-0.5-0.4-1.1-0.6-1.6c-0.2-0.5-0.4-1.1-0.5-1.7c-0.2-0.5-0.3-1.1-0.5-1.6
				c-0.2-0.6-0.3-1.2-0.5-1.8c0-0.1,0-0.1,0-0.2c-0.2-0.8-0.4-1.7-0.5-2.5c-0.2-1.1-0.4-2.2-0.5-3.4c-0.1-0.4-0.1-0.7-0.1-1.1
				c0-0.4-0.1-0.8-0.1-1.1c-0.1-0.7-0.1-1.4-0.1-2.1c0-0.5,0-0.9,0-1.4l6.7,13.1l11.5,5l13.6,1.2h0l10.1,0.9h0.1l9.4,0.9
				c0,0,0,0,0,0l21,1.9L136,84.1z"/>
		</g>
		<g>
			<defs>
				<circle id="SVGID_10_" cx="94.1" cy="94.1" r="94.1"/>
			</defs>
			<clipPath id="SVGID_11_">
				<use xlink:href="#SVGID_10_"  style="overflow:visible;"/>
			</clipPath>
			<g class="st5">
				<path class="st6" d="M94.2,90.7l0,10.1v0l0,3.5v2.8l0,9.3v0l0,0h0l0,0L53.6,95.8c0-0.1,0-0.1,0-0.2c-0.2-0.8-0.4-1.7-0.5-2.5
					c-0.2-1.1-0.4-2.2-0.5-3.4c-0.1-0.4-0.1-0.7-0.1-1.1c0-0.4-0.1-0.8-0.1-1.1c-0.1-0.7-0.1-1.4-0.1-2.1c0-0.5,0-0.9,0-1.4V71.8
					c0,0.2,0,0.3,0,0.5c0.1,3,0.6,6.2,1.5,9.6c0.7,2.6,1.6,4.9,2.6,7.1v0c2.7,5.6,6.3,9.4,9.6,10c0.2,0,0.4,0.1,0.6,0.1
					c1.3,0.1,2.6,0.2,4,0.2c5.2,0,9.9-4.2,12.8-5.9c0,0,0,0,0.1,0c0.2-0.1,0.3-0.2,0.4-0.3c0,0,0.1-0.1,0.1-0.1
					C86.6,91.6,90.1,90.7,94.2,90.7C94.1,90.7,94.2,90.7,94.2,90.7z"/>
				<path class="st6" d="M136,71.8l0,12.3c0,3.1-0.3,6.1-0.8,9c-0.2,1.2-0.5,2.3-0.8,3.5l-9.5,13.7l-30.8,6.1h0l0,0v0l0-25.7h0.1
					c4,0,7.5,0.9,10,2.3c0,0,0.1,0,0.1,0.1c0.1,0.1,0.3,0.2,0.5,0.3c0,0,0,0,0.1,0c2.9,1.7,7.6,5.9,12.8,5.9c1.4,0,2.7-0.1,4-0.2
					c0.2,0,0.4,0,0.6-0.1c3.3-0.6,6.9-4.4,9.6-10v0c1-2.1,1.9-4.5,2.6-7.1c0.9-3.4,1.4-6.7,1.5-9.7C136,72,136,71.9,136,71.8z"/>
			</g>
		</g>
		<g>
			<defs>
				<circle id="SVGID_12_" cx="94.1" cy="94.1" r="94.1"/>
			</defs>
			<clipPath id="SVGID_13_">
				<use xlink:href="#SVGID_12_"  style="overflow:visible;"/>
			</clipPath>
			<ellipse class="st7" cx="94.1" cy="103.9" rx="10.3" ry="3.2"/>
		</g>
		<g>
			<defs>
				<circle id="SVGID_14_" cx="94.1" cy="94.1" r="94.1"/>
			</defs>
			<clipPath id="SVGID_15_">
				<use xlink:href="#SVGID_14_"  style="overflow:visible;"/>
			</clipPath>
			<path class="st8" d="M94.1,10.9L94.1,10.9c-23.1,0-41.9,18.8-41.9,41.9v18.5c0,0,1.7-11,6.4-16.4c5.1-5.8,3.8-14.6,15.2-14.6
				c7.4,0,7.8,2.7,20.2,2.7h0h0h0c12.5,0,12.9-2.7,20.2-2.7c11.4,0,10.1,8.8,15.2,14.6c4.7,5.3,6.4,16.4,6.4,16.4V52.8
				C135.9,29.7,117.2,10.9,94.1,10.9z"/>
		</g>
		<g>
			<defs>
				<circle id="SVGID_16_" cx="94.1" cy="94.1" r="94.1"/>
			</defs>
			<clipPath id="SVGID_17_">
				<use xlink:href="#SVGID_16_"  style="overflow:visible;"/>
			</clipPath>
			<g class="st9">
				<path class="st10" d="M121.7,153.7l-1.1,1.2c-7.1,7.2-16.5,11.1-26.5,11.1c-10.1,0-19.5-4-26.6-11.2l-1.1-1.1
					c0.5-0.3,1.1-0.6,1.6-0.9c0,0,0,0,0,0v0c0.4-0.2,0.9-0.5,1.3-0.8c1.3-0.8,2.5-1.6,3.7-2.6c0,0,0,0,0,0c5.3,5.4,12.7,8.8,21,8.9
					h0.1c8.2,0,15.7-3.4,21-8.8l0,0c0.7,0.6,1.5,1.2,2.3,1.7c0.1,0.1,0.2,0.1,0.2,0.2c0.4,0.2,0.8,0.5,1.1,0.7
					c0.4,0.3,0.9,0.5,1.3,0.7c0.1,0,0.1,0.1,0.2,0.1C120.8,153.2,121.3,153.4,121.7,153.7z"/>
			</g>
		</g>
	</g>
</g>
</svg>
